<?xml version="1.0" encoding="UTF-8"?>
<svg xmlns="http://www.w3.org/2000/svg" viewBox="0 0 507.82 362.82">
  <defs>
    <style>
      .cls-1 {
        font-size: 12px;
      }

      .cls-1, .cls-2 {
        font-family: MyriadPro-Regular, 'Myriad Pro';
      }

      .cls-3 {
        stroke-width: 2px;
      }

      .cls-3, .cls-4 {
        fill: none;
      }

      .cls-3, .cls-4, .cls-5 {
        stroke: #231f20;
        stroke-miterlimit: 10;
      }

      .cls-2 {
        font-size: 7px;
      }

      .cls-4, .cls-5 {
        stroke-width: 5px;
      }

      .cls-5 {
        fill: #231f20;
      }
    </style>
  </defs>
  <g id="hintergrund">
    <rect class="cls-4" x="382.54" y="22.22" width="108.15" height="152.05"/>
    <rect class="cls-4" x="366.63" y="2.5" width="138.69" height="191.49"/>
    <path class="cls-4" d="M383.83,121.97c5.39-9.38,16.31-15.4,27.23-15.01s21.37,7.16,26.07,16.91c2.89,6,3.9,13.18,8.77,17.76,4.6,4.33,11.47,5.18,17.82,5.3s12.99-.22,18.74,2.44,10.12,9.59,7.38,15.25"/>
    <path class="cls-4" d="M451.92,72.13c1.12,2.92,3.38,5.38,6.19,6.74,4.98,2.42,11.51,1.04,15.08-3.19,6.72-7.96.96-19.19-8.56-20.97-8.79-1.64-15.62,9.79-12.71,17.42Z"/>
    <path class="cls-4" d="M121.22,84.25c-7.21-3.46-16.34-1.03-22.04,4.57s-8.31,13.78-8.62,21.77,1.45,15.9,3.39,23.66,4.08,15.53,4.56,23.51c.32,5.41-.13,10.86.51,16.23s2.54,10.89,6.66,14.41,10.82,4.34,14.87.75"/>
    <path class="cls-4" d="M279.55,85.73c9.29-.88,18.28,4.96,23.37,12.78s6.88,17.34,7.66,26.64c1.57,18.72-.58,37.74-6.27,55.63-6.09.22-12.18.45-18.27.67"/>
    <path class="cls-4" d="M194.56,188.86c2.16,6.43.12,14.07-4.96,18.57-7.75,6.85-20.27,5.88-27.96,12.79-3.82,3.44-5.97,8.66-5.67,13.79s3.03,10.07,7.22,13.05c4.4,3.12,9.99,4.02,14.76,6.53s8.94,8.05,6.86,13.02c-2.31,5.52-9.93,5.89-14.89,9.24-5.23,3.53-7.22,10.72-5.66,16.84s6.12,11.13,11.49,14.45,11.51,5.13,17.63,6.67c9.73,2.44,20.14,4.23,29.66,1.06,11.19-3.73,19.6-14.63,20.38-26.39.78-11.77-6.14-23.68-16.74-28.84-3.26-1.59-6.81-2.58-9.94-4.42s-5.92-4.81-6.22-8.42c-.48-5.82,5.51-11.46,3.22-16.83-.85-2-2.71-3.41-3.67-5.35-1.74-3.51-.09-7.86,2.57-10.73s6.19-4.76,9.23-7.23,5.73-5.94,5.58-9.85"/>
    <circle class="cls-3" cx="153.72" cy="335.8" r="5.59"/>
    <circle class="cls-3" cx="174.3" cy="335.8" r="5.59"/>
    <circle class="cls-3" cx="164.09" cy="325.6" r="4.62"/>
    <circle class="cls-3" cx="223.87" cy="334.83" r="5.59"/>
    <circle class="cls-3" cx="244.45" cy="334.83" r="5.59"/>
    <circle class="cls-3" cx="234.25" cy="324.62" r="4.62"/>
    <path class="cls-4" d="M181.55,354.43c9.5-12.12,19-24.24,28.5-36.36"/>
    <path class="cls-4" d="M258.2,298.16l-.25,35.78"/>
    <text class="cls-1" transform="translate(76.56 200.39)"><tspan x="0" y="0">1</tspan></text>
    <text class="cls-1" transform="translate(285.6 200.8)"><tspan x="0" y="0">1</tspan></text>
    <text class="cls-1" transform="translate(238.86 168.04)"><tspan x="0" y="0">2</tspan></text>
    <text class="cls-1" transform="translate(255.81 287.78)"><tspan x="0" y="0">5</tspan></text>
    <text class="cls-1" transform="translate(223.03 304.63)"><tspan x="0" y="0">4</tspan></text>
    <text class="cls-2" transform="translate(223.87 338.31)"><tspan x="0" y="0">3</tspan></text>
    <text class="cls-2" transform="translate(232.84 327.81)"><tspan x="0" y="0">3</tspan></text>
    <text class="cls-2" transform="translate(243.47 338.39)"><tspan x="0" y="0">3</tspan></text>
    <text class="cls-2" transform="translate(162.59 327.81)"><tspan x="0" y="0">3</tspan></text>
    <text class="cls-2" transform="translate(151.61 340.42)"><tspan x="0" y="0">3</tspan></text>
    <text class="cls-2" transform="translate(173.7 340.42)"><tspan x="0" y="0">3</tspan></text>
    <text class="cls-2" transform="translate(390.04 164.62)"><tspan x="0" y="0">7</tspan></text>
    <text class="cls-2" transform="translate(375.02 185.89)"><tspan x="0" y="0">6</tspan></text>
    <text class="cls-2" transform="translate(470.45 87)"><tspan x="0" y="0">6</tspan></text>
    <circle class="cls-4" cx="464.37" cy="72.26" r="19.05"/>
    <text class="cls-2" transform="translate(464.9 74.47)"><tspan x="0" y="0">3</tspan></text>
    <text class="cls-2" transform="translate(247.34 132.72)"><tspan x="0" y="0">8</tspan></text>
    <text class="cls-2" transform="translate(166.37 133.55)"><tspan x="0" y="0">8</tspan></text>
    <text class="cls-2" transform="translate(102.23 136.72)"><tspan x="0" y="0">3</tspan></text>
    <text class="cls-2" transform="translate(294.57 132.76)"><tspan x="0" y="0">3</tspan></text>
  </g>
  <g id="Layer_3" data-name="Layer 3">
    <ellipse class="cls-4" cx="200.5" cy="117.37" rx="87.92" ry="67.39"/>
    <ellipse class="cls-4" cx="163.08" cy="112.56" rx="21.09" ry="24.18"/>
    <ellipse class="cls-5" cx="163.08" cy="112.56" rx="9.43" ry="10.81"/>
    <ellipse class="cls-5" cx="241.17" cy="112.56" rx="9.43" ry="10.81"/>
    <ellipse class="cls-4" cx="241.17" cy="112.56" rx="21.09" ry="24.18"/>
    <polyline class="cls-4" points="188.69 156.39 200.5 130.43 213.9 157.42"/>
    <ellipse class="cls-5" cx="240.28" cy="78.44" rx="20.21" ry="5.15"/>
    <ellipse class="cls-5" cx="163.08" cy="78.44" rx="20.21" ry="5.15"/>
    <path class="cls-4" d="M129.31,76.09c-12.87-11.22-33.47-12.36-47.5-2.63-14.03,9.73-20.18,29.42-14.18,45.41,4.62,12.31,15.52,22.55,15.86,35.69.25,9.72-5.42,18.42-9.58,27.21-4.16,8.79-6.67,19.94-.79,27.68,4.2,5.52,11.73,7.65,18.64,7.09,6.91-.56,13.41-3.39,19.76-6.18-2.1,3.36,2.67,7.67,6.46,6.52,3.8-1.15,5.85-5.25,6.79-9.1,2.18-8.96.54-18.78-4.42-26.56-2.21-3.46-5.04-6.52-7.09-10.08s-3.27-7.92-1.91-11.8,6.04-6.69,9.76-4.94"/>
    <path class="cls-4" d="M272.69,77.89c12.65-11.22,32.88-12.36,46.67-2.63,13.79,9.73,19.83,29.42,13.93,45.41-4.54,12.31-15.25,22.55-15.58,35.69-.24,9.72,5.33,18.42,9.41,27.21s6.55,19.94.78,27.68c-4.12,5.52-11.52,7.65-18.31,7.09-6.79-.56-13.18-3.39-19.42-6.18,2.07,3.36-2.62,7.67-6.35,6.52s-5.75-5.25-6.67-9.1c-2.14-8.96-.54-18.78,4.34-26.56,2.17-3.46,4.95-6.52,6.97-10.08s3.22-7.92,1.88-11.8c-1.34-3.88-5.94-6.69-9.59-4.94"/>
    <path class="cls-4" d="M267.25,277.65c0,51.3-131.91,51.3-131.91,0s29.53-92.89,65.95-92.89,65.95,41.59,65.95,92.89Z"/>
    <circle class="cls-4" cx="234.16" cy="337.03" r="23.29"/>
    <circle class="cls-4" cx="164.09" cy="337.03" r="23.29"/>
  </g>
</svg>