<?xml version="1.0" encoding="iso-8859-1"?>
<!-- Uploaded to: SVG Repo, www.svgrepo.com, Generator: SVG Repo Mixer Tools -->
<svg fill="#000000" height="800px" width="800px" version="1.1" id="Capa_1" xmlns="http://www.w3.org/2000/svg" xmlns:xlink="http://www.w3.org/1999/xlink" 
	 viewBox="0 0 261.813 261.813" xml:space="preserve">
<g>
	<circle cx="103.049" cy="161.811" r="6.485"/>
	<circle cx="158.764" cy="131.465" r="6.485"/>
	<path d="M225.376,22.505l-4.433-4.655H40.871l-4.434,4.654C12.94,47.174,0,79.339,0,113.077
		c0,72.171,58.725,130.886,130.906,130.886s130.906-58.71,130.906-130.875C261.813,79.344,248.873,47.174,225.376,22.505z
		 M88.978,191.942c-10.049,0-19.201-5.832-26.077-12.008l-10.739,10.739L38.02,176.53l10.926-10.926L38.02,154.678l14.143-14.143
		l10.739,10.739c6.876-6.176,16.028-12.008,26.077-12.008c21.354,0,38.666,26.338,38.666,26.338S110.332,191.942,88.978,191.942z
		 M35.67,79.85c4.057-11.57,10.217-22.411,18.315-32h153.845c8.097,9.588,14.256,20.429,18.313,32H35.67z M223.794,146.184
		l-14.143,14.143l-10.739-10.739c-6.876,6.176-16.028,12.008-26.077,12.008c-21.354,0-38.666-26.338-38.666-26.338
		s17.312-26.338,38.666-26.338c10.049,0,19.201,5.833,26.077,12.008l10.739-10.738l14.143,14.143l-10.926,10.925L223.794,146.184z"
		/>
</g>
</svg>