<?xml version="1.0" encoding="UTF-8"?>
<svg id="Capa_1" data-name="Capa 1" xmlns="http://www.w3.org/2000/svg" viewBox="0 0 787.04 628.58">
  <path d="M1.02,310.7c25.22-65,67.38-121.31,121.94-162.87,54.88-41.8,119.63-66.46,187.43-71.43L450.22,4.54c.28-.14.56-.28.84-.4,6.32-2.75,12.78-4.14,19.21-4.14,25.94,0,45.5,22.2,45.5,51.64,0,19-8.55,35.27-18.44,54.12-1.25,2.37-2.51,4.78-3.78,7.24,58.44,29.59,109.06,75.94,144.78,132.56l95.56-59.55c.6-.38,1.23-.71,1.88-.99,4.96-2.16,10.05-3.25,15.13-3.25,20.6,0,36.14,17.41,36.14,40.49,0,26.92-29.65,73.04-44.08,93.88,14.43,20.85,44.08,66.96,44.08,93.88,0,23.09-15.53,40.49-36.14,40.49-5.08,0-10.17-1.09-15.13-3.25-.65-.28-1.28-.61-1.88-.99l-95.55-59.55c-35.63,56.68-84.61,101.79-142.93,131.62.96,1.92,1.92,3.8,2.86,5.66,9.39,18.52,17.5,34.52,17.5,52.93,0,29.44-19.56,51.64-45.5,51.64h0c-6.42,0-12.88-1.39-19.2-4.14-.3-.13-.59-.27-.88-.42l-130.41-67.55C178.84,549.93,53.96,458.04,1.01,321.57c-1.35-3.49-1.35-7.38,0-10.87ZM199.98,496.79c40.28-42.63,64.21-110.88,64.21-183.83,0-33.62-4.91-65.99-14.6-96.2-2.49-7.78,1.69-16.14,9.34-18.67,7.65-2.53,15.88,1.71,18.37,9.49,10.64,33.18,16.03,68.63,16.03,105.38,0,75.75-23.91,147.43-64.61,195.67,30.3,10.81,62.37,17.15,95.36,18.37,2.12.08,4.2.63,6.09,1.61l132.76,68.77c2.54,1.05,5,1.58,7.34,1.58h0c9.48,0,16.35-9.26,16.35-22.02,0-11.23-5.98-23.03-14.26-39.36-2.98-5.88-6.36-12.55-9.73-19.79-1.67-3.59-1.85-7.72-.51-11.44s4.11-6.75,7.67-8.39c63.25-29.08,115.51-77.17,151.15-139.08,1.98-3.44,5.23-5.92,9.03-6.89,1.17-.3,2.36-.44,3.54-.44,2.66,0,5.3.74,7.62,2.18l106.91,66.62c1.01.36,1.97.54,2.85.54,4.12,0,6.99-4.47,6.99-10.87,0-16.43-26.09-59.63-44.61-85.07-3.81-5.24-3.81-12.39,0-17.63,18.52-25.43,44.61-68.64,44.61-85.07,0-6.4-2.87-10.87-6.99-10.87-.88,0-1.84.18-2.85.54l-106.91,66.62c-3.34,2.08-7.36,2.71-11.16,1.74s-7.06-3.45-9.03-6.89c-35.52-61.71-89.89-111.41-153.09-139.97-3.6-1.63-6.4-4.67-7.76-8.43-1.36-3.76-1.16-7.92.56-11.54,3.77-7.95,7.59-15.23,10.97-21.65,8.71-16.59,15.01-28.58,15.01-40.17,0-12.76-6.88-22.02-16.35-22.02-2.34,0-4.82.54-7.36,1.59l-142.02,72.99c-1.76.91-3.68,1.44-5.65,1.56-28.24,1.82-55.92,7.38-82.48,16.43,7.04,8.85,13.6,18.45,19.58,28.74,4.09,7.04,1.8,16.13-5.13,20.29-2.33,1.4-4.88,2.06-7.4,2.06-4.98,0-9.84-2.6-12.56-7.28-6.96-11.97-14.76-22.85-23.23-32.45-22.35,10.11-43.68,22.81-63.6,37.97-48.71,37.1-86.7,87-110.14,144.59,33.25,81.69,94.66,145.45,169.69,180.66Z"/>
  <path d="M160.3,227.33c23.92,0,43.38,19.78,43.38,44.1s-19.46,44.1-43.38,44.1-43.38-19.78-43.38-44.1,19.46-44.1,43.38-44.1ZM160.3,285.9c7.85,0,14.24-6.49,14.24-14.47s-6.39-14.47-14.24-14.47-14.24,6.49-14.24,14.47,6.39,14.47,14.24,14.47Z"/>
</svg>